<?xml version="1.0" encoding="utf-8"?>
<!-- Generator: Adobe Illustrator 27.9.0, SVG Export Plug-In . SVG Version: 6.00 Build 0)  -->
<svg version="1.1" id="Layer_1" xmlns:v="https://vecta.io/nano"
	 xmlns="http://www.w3.org/2000/svg" xmlns:xlink="http://www.w3.org/1999/xlink" x="0px" y="0px" viewBox="0 0 116 32"
	 style="enable-background:new 0 0 116 32;" xml:space="preserve">
<style type="text/css">
	.st0{fill:#FE5E00;}
	.st1{fill:#7CB518;}
</style>
<g>
	<path class="st0" d="M13.3,6.5L12,9.2c-0.6-0.4-1.1-0.6-1.4-0.7c-0.4-0.2-1-0.2-1.6-0.2c-2.2,0-3.3,1.3-3.3,3.8
		c0,0.9,0.3,1.4,1,1.4c0.5,0,1.1-0.2,2-0.5c0.9-0.3,1.6-0.5,2.2-0.5l0.4,0c-0.1,0.8-0.2,1.2-0.2,1.4c-0.1,0.6-0.3,1-0.4,1.4
		c-0.1,0.2-0.1,0.2-0.2,0.2c-0.1,0-0.4,0-0.7-0.1c-0.3-0.1-0.6-0.1-0.8-0.1c-1,0-1.7,0.3-2.3,0.8c-0.5,0.6-0.8,1.3-0.8,2.3
		c0,0.7,0.1,1.5,0.3,2.5c0.2,0.8,0.4,1.6,0.5,2.5c-0.1-0.1-1-0.1-2.8-0.1c-0.6,0-0.9-0.9-0.9-2.7c0-0.3,0-0.6,0-1c0-0.4,0-0.6,0-0.6
		c0-0.2,0-0.8,0-2c0-1.1,0-2.1,0-2.9c0-5,0.4-7.5,1.2-7.5L13.3,6.5z"/>
	<path class="st0" d="M22.9,13.8v3.5c0,0.2,0,0.5,0,1.2c0,0.6,0.1,1.1,0.1,1.5c0,2.4-0.6,3.6-1.8,3.6c-0.5,0-0.8-0.1-0.9-0.3
		c0-0.2-0.1-0.3-0.1-0.5s-0.2-0.3-0.7-0.3c-0.1,0-0.5,0.2-1.1,0.6c-0.6,0.4-1.1,0.6-1.6,0.6c-1.4,0-2.3-1-2.7-3.1
		c-0.2-0.9-0.3-2.4-0.3-4.7c0-3.6,0.2-5.4,0.7-5.4H17c-0.7,3-1,5.4-1,7c0,2.7,0.7,4,2.1,4c1.7,0,2.6-1.7,2.6-5
		c0-0.7-0.1-1.7-0.4-3.1c-0.2-1.4-0.4-2.3-0.4-3c0.4,0.1,0.8,0.2,1.3,0.2c0.2,0,0.4,0,0.6,0c0.2,0,0.4,0,0.4,0
		c0.3,0,0.5,0.2,0.6,0.6C22.8,11.5,22.9,12.4,22.9,13.8z"/>
	<path class="st0" d="M33.1,15.7v2.8c0,0.1,0,0.3,0,0.7c0,0.4,0,0.7,0,1c0,2-0.4,3-1.1,3h-1.8l-0.4,0c0.7-2.2,1-4.6,1-7.2
		c0-1.1-0.1-1.9-0.2-2.3c-0.3-0.9-0.8-1.3-1.6-1.3c-1,0-1.8,0.6-2.2,1.8c-0.3,0.8-0.5,1.9-0.5,3.1c0,0.7,0.1,1.8,0.3,3
		c0.2,1.4,0.3,2.4,0.3,3c-0.3-0.1-0.6-0.2-0.9-0.2c-0.2,0-0.4,0-0.7,0c-0.3,0-0.4,0-0.5,0c-0.3,0-0.5-0.1-0.6-0.3
		c-0.1-0.2-0.2-0.7-0.2-1.3l0-3.2c0-0.1,0-0.6,0-1.4s0-1.6,0-2.2c0-3.3,0.5-5,1.6-5h1.1c0.2,0,0.4,0,0.5,0c-0.1,0.4-0.2,0.7-0.2,1
		c0,0.3,0.2,0.5,0.6,0.5c0.1,0,0.4-0.1,1-0.4c0.6-0.3,1.2-0.4,1.6-0.4c1.1,0,1.8,0.7,2.2,2C32.9,13.3,33.1,14.4,33.1,15.7z"/>
	<path class="st0" d="M51.3,23.3c-0.1-0.1-0.6-0.1-1.5-0.1c-0.9,0-1.5,0-1.7,0.1c0-0.9-0.3-2.2-1-3.9c-0.8-2-1.5-3-2.2-3
		c-0.6,0-1.1,0.3-1.7,0.8c-0.5,0.5-0.8,1-0.8,1.6c0,0.8,0.2,2.2,0.7,4.1l0.1,0.5c-1.7,0-2.7-0.1-3-0.2c-0.4-0.2-0.6-0.7-0.6-1.5
		c0-0.1,0-0.5,0-1.1c0-0.6,0-1.1,0-1.5c0-0.1,0-0.8,0-1.9c0-1.1,0-2.1,0-2.9c0-5.1,0.4-7.6,1.2-7.6h5.5c1.3,0,2.4,0.3,3.2,0.8
		c0.9,0.6,1.3,1.5,1.3,2.8c0,0.9-0.3,1.8-0.8,2.5c-0.3,0.4-0.8,0.9-1.5,1.5c-0.5,0.4-0.8,0.8-0.8,1c0,0.1,0.3,0.6,1,1.5
		c0.8,1,1.4,1.9,1.8,2.8C51,20.5,51.3,21.9,51.3,23.3z M47.9,10.4c0-0.7-0.3-1.2-0.8-1.6c-0.5-0.3-1.1-0.5-1.8-0.5
		c-1.3,0-2.2,0.5-2.7,1.6c-0.2,0.6-0.3,1.7-0.3,3.4c0,0.8,0.3,1.2,1,1.2c0.8,0,1.8-0.5,2.9-1.5C47.3,12,47.9,11.1,47.9,10.4z"/>
	<path class="st0" d="M54.9,23c0,0.2-0.1,0.2-0.3,0.2l-1.9,0c-0.6,0-0.8-0.5-0.8-1.5c0-0.1,0-0.3,0-0.6c0-0.2,0-0.4,0-0.5
		c0-0.9,0-2.4,0-4.2c0-1.9,0-3.3,0-4.2c0-0.6,0-0.9,0-1.1c0.1-0.4,0.4-0.6,0.7-0.6h1.7c0,0.4,0,1-0.1,1.9c-0.1,0.9-0.1,1.5-0.1,1.9
		c0,2.1,0.1,4.2,0.4,6.1c0,0.1,0.1,0.6,0.2,1.3C54.9,22.3,54.9,22.7,54.9,23z M54.7,7.1c0,0.3-0.1,0.6-0.4,0.8
		c-0.2,0.2-0.5,0.3-0.9,0.3c-0.3,0-0.6-0.1-0.9-0.3c-0.3-0.2-0.4-0.5-0.4-0.8c0-0.4,0.1-0.6,0.4-0.8c0.3-0.2,0.6-0.3,0.9-0.3
		c0.4,0,0.7,0.1,0.9,0.3C54.6,6.4,54.7,6.7,54.7,7.1z"/>
	<path class="st0" d="M65.4,20.3c0,1.9-0.1,2.9-0.4,2.9h-4.9c-1.4,0-2.5-0.7-3.2-2c-0.6-1.1-0.8-2.4-0.8-3.9c0-1.5,0.4-3,1.2-4.5
		c0.9-1.8,2.1-2.7,3.5-2.7c0,0,0.2,0.1,0.5,0.3c0.3,0.2,0.5,0.3,0.7,0.3c0.2,0,0.4-0.1,0.6-0.3c0.1-0.2,0.2-0.4,0.2-0.7
		c0-0.5-0.1-1.1-0.2-1.9c-0.2-0.9-0.3-1.6-0.3-1.9h2.6c0.1,0,0.2,0.1,0.3,0.4c0.2,0.6,0.3,2.2,0.3,4.8V20.3z M63.2,16.8
		c0-0.1,0-0.3,0-0.6c0-0.4,0-0.6,0-0.9c0-2.6-0.6-3.9-1.7-3.9c-1.1,0-1.9,0.7-2.5,2c-0.5,1-0.7,2.2-0.7,3.4c0,0.9,0.2,1.8,0.6,2.6
		c0.5,0.9,1.2,1.4,2,1.4C62.5,20.8,63.2,19.4,63.2,16.8z"/>
	<path class="st0" d="M75.9,19.1c0.1,1.3-0.3,2.4-1.1,3.2c-0.8,0.8-1.8,1.2-3.2,1.2c-1.7,0-2.9-0.6-3.8-1.9
		c-0.7-1.1-1.1-2.5-1.1-4.3c0-1.8,0.4-3.4,1.2-4.8c0.9-1.6,2.3-2.5,4-2.5c1.1,0,2,0.3,2.8,0.9c0.8,0.6,1.2,1.5,1.2,2.5
		c0,1.2-0.6,2.2-1.8,2.8c-0.1,0.1-1.2,0.5-3.2,1.3c-1.1,0.4-1.7,1-1.7,1.7c0,0.6,0.4,1.1,1.1,1.5c0.6,0.3,1.2,0.5,1.9,0.5
		c1.9,0,3.2-0.8,3.8-2.5L75.9,19.1z M73.9,13.8c0-0.5-0.2-1-0.6-1.3c-0.4-0.4-0.9-0.5-1.4-0.5c-0.8,0-1.5,0.4-2.1,1.1
		c-0.6,0.7-0.8,1.4-0.8,2.3c0,0.5,0.2,0.8,0.7,0.8c0.5,0,1.3-0.3,2.5-0.8C73.3,14.8,73.9,14.3,73.9,13.8z"/>
	<path class="st1" d="M93.4,18.3c0,1.6-0.4,2.9-1.2,3.8c-0.9,1-2.1,1.4-3.8,1.4c-2.1,0-3.8-0.9-5-2.6c-1.1-1.5-1.6-3.4-1.6-5.6
		c0-2.4,0.6-4.4,1.8-6.2c1.4-2,3.2-3,5.4-3c1,0,2,0.2,2.8,0.6c1,0.5,1.5,1.2,1.5,2.2c0,1.1-0.6,1.6-1.8,1.6C91.2,9.5,91,9,90.9,8.9
		c-0.3-0.3-0.8-0.5-1.7-0.5c-1.5,0-2.6,0.7-3.5,2c-0.7,1.1-1.1,2.5-1.1,4.1c0,1.5,0.4,2.8,1.2,4c0.9,1.3,2.1,1.9,3.6,1.9
		c2,0,3.3-0.9,3.9-2.8l0-0.1C93.4,17.6,93.4,17.8,93.4,18.3z"/>
	<path class="st1" d="M97,23c0,0.2-0.1,0.2-0.3,0.2l-1.9,0c-0.6,0-0.8-0.5-0.8-1.5c0-0.1,0-0.3,0-0.6c0-0.2,0-0.4,0-0.5
		c0-0.9,0-2.4,0-4.2c0-1.9,0-3.3,0-4.2c0-0.6,0-0.9,0-1.1c0.1-0.4,0.4-0.6,0.7-0.6h1.7c0,0.4,0,1-0.1,1.9c-0.1,0.9-0.1,1.5-0.1,1.9
		c0,2.1,0.1,4.2,0.4,6.1c0,0.1,0.1,0.6,0.2,1.3C97,22.3,97,22.7,97,23z M96.8,7.1c0,0.3-0.1,0.6-0.4,0.8c-0.2,0.2-0.5,0.3-0.9,0.3
		c-0.3,0-0.6-0.1-0.9-0.3c-0.3-0.2-0.4-0.5-0.4-0.8c0-0.4,0.1-0.6,0.4-0.8c0.3-0.2,0.6-0.3,0.9-0.3c0.4,0,0.7,0.1,0.9,0.3
		C96.7,6.4,96.8,6.7,96.8,7.1z"/>
	<path class="st1" d="M103.8,11.8l-0.2,0.3c-0.6-0.1-0.9-0.2-1-0.2c-1,0-1.5,0.8-1.5,2.4c0,1.8,0,3.1,0.1,3.9
		c0.1,1.5,0.4,2.8,0.9,3.8c0.1,0.2,0.1,0.3,0.1,0.4s-0.4,0.3-1.1,0.6c-0.7,0.3-1.2,0.5-1.4,0.5c-0.4,0-0.7-1.6-0.7-4.9
		c0-0.6,0-1.5,0.1-2.6c0-1.2,0.1-2,0.1-2.6c0-1-0.4-1.4-1.1-1.4c-0.1,0-0.4,0.1-0.8,0.3c0.1-0.5,0.1-1,0.2-1.5
		c0.1-0.2,0.5-0.2,1.2-0.2c0.4,0,0.7-0.3,0.8-0.8c0.2-0.8,0.4-1.3,0.5-1.5c0.4-0.5,1.2-0.8,2.3-0.8c-0.1,0.1-0.2,0.4-0.4,1.1
		c-0.2,0.7-0.3,1.1-0.3,1.2c0,0.6,0.2,0.8,0.7,0.8c0.1,0,0.2,0,0.4,0c0.2,0,0.3,0,0.4,0c0.3,0,0.5,0.2,0.5,0.5
		C103.8,11,103.8,11.3,103.8,11.8z"/>
	<path class="st1" d="M113.2,11.7c0,1.6-0.4,3.3-1.1,5.1c-0.8,1.9-1.8,3.5-3,4.7c-1.4,1.4-3,2-4.7,2c-0.1,0-0.2-0.1-0.2-0.2
		c0-1.9,0-2.4,0-1.4c0-0.8,0.1-1.2,0.3-1.2c0.6,0,1.3-0.1,1.9-0.3c0.9-0.2,1.4-0.6,1.4-1.1c0-0.1-0.3-0.6-0.9-1.3
		c-0.8-0.9-1.3-1.8-1.7-2.6c-0.6-1.3-0.9-2.7-0.9-4.3c0-0.3,0-0.4,0.1-0.5c0-0.1,0.2-0.1,0.4-0.1h1.7c0.1,0,0.3,0,0.4,0.1
		c0,0.2-0.1,0.4-0.1,0.8c-0.1,0.3-0.1,0.6-0.1,0.8c0,0.7,0.3,1.7,0.9,3c0.6,1.4,1.3,2.1,1.9,2.1c0.5,0,0.9-0.6,1.3-1.9
		c0.3-1,0.4-1.8,0.4-2.5c0-0.3,0-0.6-0.1-1.1c-0.1-0.5-0.1-0.9-0.1-1.1h2.3C113.2,10.6,113.2,11.1,113.2,11.7z"/>
</g>
</svg>
