<?xml version="1.0" encoding="utf-8"?>
<!-- Generator: Adobe Illustrator 27.9.0, SVG Export Plug-In . SVG Version: 6.00 Build 0)  -->
<svg version="1.1" id="Layer_1" xmlns:v="https://vecta.io/nano"
	 xmlns="http://www.w3.org/2000/svg" xmlns:xlink="http://www.w3.org/1999/xlink" x="0px" y="0px" viewBox="0 0 32 32"
	 style="enable-background:new 0 0 32 32;" xml:space="preserve">
<style type="text/css">
	.st0{fill-rule:evenodd;clip-rule:evenodd;fill:#7CB518;}
</style>
<g>
	<path class="st0" d="M16,12c-1.5,0-2.7,1.2-2.7,2.7s1.2,2.7,2.7,2.7s2.7-1.2,2.7-2.7S17.5,12,16,12z M10.7,14.7
		c0-2.9,2.4-5.3,5.3-5.3s5.3,2.4,5.3,5.3S18.9,20,16,20S10.7,17.6,10.7,14.7z"/>
	<path class="st0" d="M16,5.3c-1.8,0-3.6,0.5-5.2,1.6s-2.7,2.5-3.4,4.2s-0.9,3.6-0.5,5.4s1.2,3.5,2.6,4.8l5.7,5.7
		c0.2,0.2,0.6,0.4,0.9,0.4s0.7-0.1,0.9-0.4l5.7-5.7c1.3-1.3,2.2-3,2.6-4.8s0.2-3.7-0.5-5.4s-1.9-3.2-3.4-4.2S17.8,5.3,16,5.3z
		 M24.5,23.2c3.4-3.4,4.5-8.6,2.6-13.1C25.2,5.6,20.9,2.7,16,2.7c-4.9,0-9.2,2.9-11.1,7.4c-1.9,4.5-0.8,9.6,2.6,13.1l5.7,5.7
		c1.6,1.6,4.1,1.6,5.7,0L24.5,23.2L24.5,23.2z"/>
</g>
</svg>
